<?xml version="1.0" encoding="UTF-8" standalone="no"?>
<svg
   xmlns:dc="http://purl.org/dc/elements/1.1/"
   xmlns:cc="http://creativecommons.org/ns#"
   xmlns:rdf="http://www.w3.org/1999/02/22-rdf-syntax-ns#"
   xmlns:svg="http://www.w3.org/2000/svg"
   xmlns="http://www.w3.org/2000/svg"
   id="svg10"
   y="0px"
   x="0px"
   viewBox="0 0 4086.7773 4620"
   version="1.1">
  <metadata
     id="metadata16">
    <rdf:RDF>
      <cc:Work
         rdf:about="">
        <dc:format>image/svg+xml</dc:format>
        <dc:type
           rdf:resource="http://purl.org/dc/dcmitype/StillImage" />
        <dc:title></dc:title>
      </cc:Work>
    </rdf:RDF>
  </metadata>
  <defs
     id="defs14" />
  <g
     id="g4"
     transform="translate(-627.39427,-1195.6081)">
    <path
       id="path2"
       fill="#000000"
       d="m 627.39427,3043.6081 v -1848 h 234.5 234.50003 v 92.5 92.5 h 256.5 c 141.075,0 256.5,-0.1738 256.5,-0.3862 0,-0.2124 -9.3452,-7.3851 -20.7671,-15.9393 -11.4219,-8.5542 -21.7448,-16.8756 -22.9398,-18.4919 -3.2489,-4.3943 -5.6201,-12.589 -5.0658,-17.5067 1.95,-17.3001 20.7878,-27.6035 35.9852,-19.6821 5.9632,3.1082 107.0694,79.5749 109.1808,82.5736 1.0414,1.4789 2.4379,4.533 3.1034,6.7869 1.2054,4.0826 1.2127,4.0625 1.9475,-5.3782 4.104,-52.7323 24.0105,-97.2504 59.8601,-133.869 34.2614,-34.9963 77.0172,-55.8351 126.4152,-61.6135 39.6588,-4.6391 81.0551,2.8064 116.7805,21.0042 17.0606,8.6903 25.0795,13.8009 38.0451,24.2465 54.92,44.2458 83.9851,112.856 77.4201,182.7557 -2.1191,22.5626 -8.6576,47.3146 -17.4935,66.2231 -2.3844,5.1023 -4.1839,9.2769 -3.9989,9.2769 0.185,0 1.7331,-2.475 3.4403,-5.5 1.7072,-3.025 3.4875,-5.5 3.9562,-5.5 0.4688,0 19.4774,10.7246 42.2415,23.8324 73.6477,42.4073 282.1182,162.556 412.3892,237.6742 153.9312,88.7613 128.4994,74.105 271.5,156.4654 65.175,37.5372 134.925,77.7107 155,89.2744 20.075,11.5637 36.8977,21.3841 37.3838,21.8231 0.4951,0.4471 -0.333,2.9163 -1.8829,5.6143 -3.4742,6.0476 -2.3694,4.9198 5.0782,-5.1838 7.505,-10.1815 22.3537,-25.647 33.9209,-35.3299 28.9558,-24.2389 66.7475,-40.8153 105.5,-46.2752 13.0691,-1.8413 44.6394,-1.6076 58.1881,0.4308 53.5523,8.057 101.8881,36.1818 135.5574,78.876 18.7881,23.8242 34.6265,58.7251 40.2213,88.6303 4.7576,25.43 5.1395,42.8722 1.5965,72.9128 -0.5135,4.3535 -0.4649,4.5018 0.5748,1.7552 0.6247,-1.65 1.2465,-3.1349 1.3819,-3.2998 0.243,-0.2959 154.4194,41.3294 416.48,112.4434 73.975,20.0742 141.025,38.2274 149,40.3403 7.975,2.113 67.825,18.3019 133,35.9754 65.175,17.6735 135.15,36.6367 155.5,42.1404 20.35,5.5037 37.7595,10.2292 38.6878,10.5011 1.535,0.4497 1.561,0.9161 0.2867,5.1502 -2.0711,6.8818 -1.102,6.2485 1.4952,-0.9771 6.0011,-16.695 20.0736,-41.0904 32.7502,-56.7739 7.25,-8.9696 23.2643,-24.9146 32.2801,-32.1403 16.0915,-12.8965 42.5662,-27.3716 62.6168,-34.2361 27.7333,-9.4946 61.8324,-13.5365 89.1726,-10.57 40.7146,4.4178 78.9568,19.9924 110.2106,44.8848 8.848,7.047 24.932,23.0089 32.0085,31.7654 51.2575,63.4263 61.279,151.1976 25.6189,224.3792 -20.0463,41.1391 -53.9243,75.1949 -95.3535,95.8542 -51.3948,25.6288 -111.7165,28.8649 -166.2739,8.9202 -19.8681,-7.2632 -42.1674,-19.907 -58.1691,-32.9822 l -6.3309,-5.1731 5.359,5.5408 5.3591,5.5408 -58.3685,61.3581 c -208.5725,219.2559 -284.9658,300.113 -284.5555,301.1823 0.2571,0.6699 13.2336,15.3775 28.8367,32.6835 15.603,17.306 93.7516,104.1046 173.6634,192.8859 l 145.2942,161.4205 -4.7942,4.3806 -4.7942,4.3806 6,-4.4005 c 25.6724,-18.8284 54.134,-31.3609 85.467,-37.6338 65.9474,-13.2025 135.4458,7.1317 184.4212,53.9591 34.451,32.94 55.5951,73.4006 63.3042,121.1365 2.6232,16.2434 2.3619,48.6986 -0.5232,64.9819 -12.1627,68.647 -53.6724,124.1664 -115.4883,154.4665 -23.9232,11.7263 -46.9496,18.047 -74.9634,20.5772 -25.7239,2.3234 -57.875,-1.5676 -82.7175,-10.0106 -32.4135,-11.0161 -56.2785,-25.5868 -80.3259,-49.0427 -24.1765,-23.5819 -41.4465,-50.6909 -52.3082,-82.1088 -2.9542,-8.5452 -3.2632,-9.0557 -3.0751,-5.0795 l 0.2092,4.4205 -36,7.407 c -35.3257,7.2682 -187.4162,38.8251 -396.5,82.2688 -58.025,12.0565 -172.775,35.853 -255,52.8811 -82.225,17.0281 -159.0628,32.9515 -170.7507,35.3854 l -21.2507,4.4253 -0.9234,-3.6043 c -0.5079,-1.9824 -1.1423,-4.5043 -1.4098,-5.6043 -0.2675,-1.1 -0.1891,1.15 0.1741,5 1.1944,12.659 0.5305,42.4273 -1.1902,53.3635 -7.4409,47.2923 -28.7945,88.1816 -63.2611,121.1365 -63.8818,61.08 -159.9582,75.3433 -238.4976,35.4067 -26.8585,-13.6574 -47.8323,-30.4665 -69.758,-55.9067 -3.9794,-4.6173 -4.1407,-4.7089 -2.1069,-1.1974 1.2114,2.0914 2.0386,3.9217 1.8384,4.0672 -0.2003,0.1456 -19.4891,12.438 -42.8641,27.3165 -23.375,14.8785 -90.65,57.7774 -149.5,95.3308 -58.85,37.5534 -116,74.0054 -127,81.0044 -11,6.999 -74.9,47.7453 -142,90.5473 -67.1,42.802 -126.95,80.9454 -133,84.7631 -11.2356,7.09 -222.4644,141.8635 -299.8236,191.301 -23.553,15.0519 -42.9728,27.3671 -43.155,27.3671 -0.1822,0 -1.5181,-2.025 -2.9685,-4.5 -1.4505,-2.475 -2.8877,-4.5 -3.1938,-4.5 -0.3062,0 0.3639,1.5601 1.4889,3.467 6.9539,11.7859 16.1454,37.5512 19.6324,55.033 9.2998,46.6229 3.8062,91.2126 -16.3863,133 -11.0902,22.9509 -21.1998,37.4581 -38.5727,55.3517 -18.5995,19.1571 -34.3012,30.5797 -58.0214,42.2093 -51.0075,25.008 -107.1565,28.677 -160.291,10.474 -45.1477,-15.4667 -83.6869,-45.8334 -109.6124,-86.3682 -40.8943,-63.9388 -43.2066,-146.9688 -5.9678,-214.2916 15.9376,-28.8131 41.4451,-56.0742 69.3712,-74.1404 31.9696,-20.6821 67.7778,-31.7994 107.5,-33.3753 25.1223,-0.9967 52.3521,3.2453 76.5,11.9176 5.225,1.8764 10.4,3.7247 11.5,4.1072 1.1,0.3825 -0.3763,-0.5473 -3.2806,-2.0662 -2.9043,-1.519 -5.1543,-3.2334 -5,-3.8099 0.1543,-0.5765 23.8601,-47.6142 52.6796,-104.5282 28.8194,-56.914 77.4653,-152.98 108.1021,-213.48 30.6367,-60.5 94.7398,-187.0923 142.4514,-281.3163 47.7116,-94.2239 86.5906,-171.4286 86.3979,-171.5659 -0.1927,-0.1374 -45.3504,-9.565 -100.3504,-20.9502 -55,-11.3853 -113.725,-23.5471 -130.5,-27.0262 l -30.5,-6.3258 0.2206,-4.4078 c 0.1883,-3.765 -0.4033,-2.6577 -4.0568,7.5922 -10.077,28.2708 -25.4872,53.0054 -46.6453,74.8694 -17.85,18.4455 -34.02,30.4172 -56.5239,41.8483 -49.3849,25.0856 -106.5873,29.4515 -160.1755,12.2252 -14.2972,-4.596 -37.9867,-16.2024 -50.8191,-24.8984 -42.3021,-28.6662 -71.6759,-69.2401 -85.8645,-118.6039 -2.9011,-10.0932 -6.2548,-29.7796 -7.2301,-42.4406 -0.6826,-8.8613 -0.7129,-8.9437 -1.9642,-5.3448 -0.699,2.0104 -2.0817,4.8926 -3.0726,6.4051 -1.935,2.9531 -102.8909,79.1804 -109.2724,82.5066 -9.3547,4.8759 -21.0137,2.9926 -28.69,-4.6344 -8.5352,-8.4803 -9.6443,-21.4634 -2.7045,-31.6577 1.4844,-2.1805 11.195,-10.2103 23.4171,-19.3638 11.4847,-8.6012 20.8812,-15.8123 20.8812,-16.0248 0,-0.2124 -115.425,-0.3862 -256.5,-0.3862 h -256.5 v 533.5 533.5 h 256.5 c 141.075,0 256.5,-0.1738 256.5,-0.3862 0,-0.2125 -9.3452,-7.3852 -20.7671,-15.9394 -11.4219,-8.5542 -21.7448,-16.8755 -22.9398,-18.4918 -3.2489,-4.3944 -5.6201,-12.589 -5.0658,-17.5068 1.9667,-17.4484 20.4141,-27.5112 35.9266,-19.5973 7.2435,3.6954 107.1875,79.4835 109.5572,83.0778 3.4976,5.3054 4.8625,12.8469 3.4401,19.0089 -0.6557,2.8408 -2.1476,6.7109 -3.3152,8.6001 -1.4036,2.2712 -19.7063,16.6276 -54.017,42.3705 -28.5417,21.4145 -53.617,39.8334 -55.7228,40.9311 -9.3547,4.8759 -21.0137,2.9926 -28.69,-4.6344 -8.5352,-8.4803 -9.6443,-21.4634 -2.7045,-31.6577 1.4844,-2.1805 11.195,-10.2103 23.4171,-19.3638 11.4847,-8.6012 20.8812,-15.8123 20.8812,-16.0248 0,-0.2124 -115.425,-0.3862 -256.5,-0.3862 h -256.5 v 80 80 h -234.50003 -234.5 z m 420.00003,0 v -1798 h -185.00003 -185 v 1798 1798 h 185 185.00003 z M 2087.2685,4552.558 c -1.7091,-2.7775 -2.9424,-5.1726 -2.7408,-5.3223 0.2016,-0.1497 20.3916,-13.0264 44.8666,-28.615 24.475,-15.5885 101.425,-64.6473 171,-109.0197 69.575,-44.3723 214.925,-137.0668 323,-205.9877 108.075,-68.921 241.8704,-154.2671 297.3231,-189.658 55.4527,-35.391 100.9725,-64.3472 101.155,-64.3472 0.1825,0 1.5186,2.025 2.969,4.5 4.4764,7.6383 3.8145,4.986 -1.3102,-5.25 -8.5941,-17.1659 -15.0984,-37.9104 -18.7343,-59.75 -1.7658,-10.6067 -2.464,-41.0995 -1.2365,-54 l 0.666,-7 -1.3254,5.326 c -0.7289,2.9293 -1.4787,5.4413 -1.666,5.5821 -0.1874,0.1409 -8.4407,-1.4486 -18.3407,-3.5322 -9.9,-2.0836 -76.725,-15.9509 -148.5,-30.8161 -71.775,-14.8652 -142.4166,-29.5228 -156.9814,-32.5725 -14.5648,-3.0496 -27.0467,-5.4194 -27.7375,-5.2661 -0.6909,0.1534 -45.8143,58.7788 -100.2742,130.2788 -368.0397,483.196 -481.2783,631.5 -482.1862,631.5 -0.5681,0 -2.8976,-1.438 -5.1768,-3.1956 -2.2791,-1.7576 1.0558,2.1799 7.4111,8.75 6.3552,6.5701 13.4968,14.5331 15.8701,17.6956 2.3734,3.1625 4.482,5.75 4.6858,5.75 0.2038,0 -1.0277,-2.2725 -2.7367,-5.0501 z m -29.8742,-30.3275 c 0,-0.2076 -0.7875,-0.9951 -1.75,-1.75 -1.5861,-1.2438 -1.6214,-1.2085 -0.3776,0.3776 1.3064,1.6657 2.1276,2.1955 2.1276,1.3724 z m -21.5044,-16.6295 c -0.3423,-0.5539 -2.0564,-1.7362 -3.809,-2.6272 -3.6232,-1.842 -3.0538,-0.9143 1.0558,1.7203 3.3155,2.1254 3.5551,2.2044 2.7532,0.9069 z m 215.0746,-298.9929 c 99.4804,-130.625 185.6112,-243.7259 191.4017,-251.3352 5.7904,-7.6094 42.4051,-55.6824 81.3659,-106.8289 38.9607,-51.1466 70.6857,-93.1436 70.5,-93.3268 -0.3569,-0.3519 -153.6578,-32.1259 -157.69,-32.6837 -2.5304,-0.3501 8.3761,-21.6858 -261.8176,512.1746 -38.2748,75.625 -78.1452,154.375 -88.6008,175 -10.4557,20.625 -18.3403,36.825 -17.5215,36 0.8189,-0.825 82.8819,-108.375 182.3623,-239 z m 759.1129,-406.1875 c -0.3192,-0.7977 -0.5562,-0.5608 -0.6042,0.6042 -0.043,1.0541 0.193,1.6448 0.5253,1.3125 0.3323,-0.3323 0.3678,-1.1948 0.079,-1.9167 z m 405,0 c -0.3192,-0.7977 -0.5562,-0.5608 -0.6042,0.6042 -0.043,1.0541 0.193,1.6448 0.5253,1.3125 0.3323,-0.3323 0.3678,-1.1948 0.079,-1.9167 z m -391.3421,-34.3125 c 9.3188,-19.1825 19.3965,-34.1846 33.5876,-50 4.3058,-4.7987 4.2438,-4.7669 -1.5403,0.7898 l -6.0267,5.7898 -53.4308,-56.2622 c -29.3869,-30.9442 -75.0308,-79.0705 -101.4308,-106.9474 -26.4,-27.8769 -48.45,-50.5809 -49,-50.4533 -1.2569,0.2916 -162.5,211.5131 -162.5,212.868 0,0.3154 2.5875,1.0933 5.75,1.7286 3.1625,0.6353 68.3,14.1259 144.75,29.979 76.45,15.8532 147.55,30.5929 158,32.7549 l 19,3.931 -0.1979,4.4109 c -0.1759,3.922 0.1857,3.3026 3.2629,-5.5891 1.9033,-5.5 6.3026,-15.85 9.776,-23 z m 390.4271,28.3242 -0.2681,-4.1757 23,-4.7791 c 12.65,-2.6285 81.725,-16.9443 153.5,-31.8128 294.6001,-61.028 397.8462,-82.429 523.5,-108.512 72.6,-15.0702 142.575,-29.6058 155.5,-32.3013 12.925,-2.6955 23.6533,-4.7872 23.8407,-4.6481 0.1873,0.139 0.9401,2.6495 1.6727,5.5788 l 1.3321,5.326 -0.6727,-5.5 c -0.3701,-3.025 -0.6541,-14.05 -0.6313,-24.5 0.056,-25.8052 3.0602,-44.4513 10.8661,-67.4487 2.7832,-8.2001 2.893,-10.7454 0.1541,-3.5736 -0.9499,2.4873 -2.2524,4.5219 -2.8944,4.5215 -0.642,-4e-4 -4.0923,-1.3899 -7.6673,-3.0877 -5.9006,-2.8022 -154.7206,-72.4115 -407.4527,-190.5826 -52.224,-24.4186 -95.4779,-44.2695 -96.1198,-44.1132 -1,0.2436 -78.1039,81.2102 -364.3119,382.5626 l -52.5003,55.2784 -6.0152,-5.7784 c -5.7917,-5.5637 -5.8485,-5.5926 -1.5287,-0.7783 7.9074,8.8125 15.542,18.7597 21.4901,28 7.3165,11.366 18.3832,34.3332 22.0446,45.75 1.5434,4.8125 2.9465,8.75 3.1182,8.75 0.1716,0 0.1913,-1.8791 0.044,-4.1758 z m -694.8035,-202.7445 c 49.7556,-65.3771 90.6212,-119.3371 90.8125,-119.9111 0.1914,-0.574 -25.4427,-28.175 -56.9646,-61.3354 -31.5219,-33.1605 -67.7978,-71.3261 -80.6131,-84.8125 -12.8153,-13.4864 -23.7459,-24.5207 -24.2901,-24.5207 -1.1408,0 -190.0129,372.5283 -189.5799,373.9242 0.2661,0.8576 163.735,35.3288 168.1706,35.4626 1.5084,0.046 24.2383,-29.16 92.4646,-118.8071 z m 378.1199,90.2873 c 3.2535,-2.0082 5.9155,-3.8074 5.9155,-3.9983 0,-0.1908 -2.4624,0.8607 -5.4721,2.3368 -3.0096,1.476 -5.6497,2.4836 -5.8669,2.2391 -0.2171,-0.2445 -29.4327,-55.5696 -64.9234,-122.9446 -80.3837,-152.5991 -89.7541,-170.3499 -90.1176,-170.7133 -0.344,-0.344 -59.4614,77.1948 -59.8531,78.5038 -0.1468,0.4905 20.2225,22.4508 45.2651,48.8006 25.0427,26.3499 72.0006,75.7487 104.3511,109.7751 l 58.819,61.8663 -5.3511,5.5006 -5.351,5.5005 8.3345,-6.6077 c 4.584,-3.6342 10.9965,-8.2508 14.25,-10.2589 z m 247.0202,11.239 -5.3269,-5.3939 58.3611,-61.3837 c 32.0986,-33.761 109.2068,-114.9212 171.3516,-180.356 62.1448,-65.4348 125.8198,-132.4154 141.5,-148.8456 27.9392,-29.2757 33.6052,-35.4779 32.8733,-35.9842 -0.2001,-0.1384 -5.3138,-2.5386 -11.3638,-5.3337 -10.3173,-4.7666 -208.9887,-97.6193 -298.4882,-139.504 -22.2685,-10.4213 -40.6374,-19.0971 -40.8197,-19.2795 -0.1824,-0.1824 0.5998,-2.1573 1.7381,-4.3887 3.6813,-7.2158 2.2064,-5.7115 -3.6802,3.7537 -7.9165,12.729 -17.5398,24.8084 -29.0346,36.4446 -34.4818,34.9064 -76.6965,55.4117 -125.9349,61.1714 -46.8057,5.4752 -98.1191,-6.4296 -136.7805,-31.7332 -2.624,-1.7175 -2.5614,-1.579 0.5,1.1047 1.925,1.6876 3.8375,3.0804 4.25,3.0952 0.4125,0.015 0.75,0.4804 0.75,1.0347 0,0.5543 -30.1737,40.6052 -67.0527,89.0019 l -67.0527,87.9941 83.0728,157.6447 c 45.69,86.7046 82.9512,157.7484 82.8027,157.8752 -0.1486,0.1267 -2.1826,1.1949 -4.5201,2.3737 -6.3565,3.2055 -5.1435,3.2355 3,0.074 38.7657,-15.0491 80.5017,-18.6933 120.084,-10.4852 31.819,6.5982 65.3492,22.3255 88.166,41.354 3.3,2.7522 6.2096,5.0389 6.4658,5.0817 0.2563,0.043 -1.9312,-2.3494 -4.8611,-5.3161 z m -911.2698,-79.856 c 14.279,-28.1875 51.1516,-100.975 81.9392,-161.75 30.7875,-60.775 60.0901,-118.7214 65.1168,-128.7698 l 9.1394,-18.2697 -3.2651,1.4073 c -1.7959,0.7741 -32.2902,14.9968 -67.7652,31.6061 -35.475,16.6093 -122.1,57.1182 -192.5,90.0198 -70.4,32.9016 -144.425,67.5279 -164.5,76.9472 -20.075,9.4194 -37.4615,17.372 -38.6367,17.6726 -1.7999,0.4603 -2.4139,-0.1792 -3.8944,-4.0558 -3.2258,-8.4466 -2.4157,-4.1315 1.548,8.2452 7.377,23.0352 10.6314,47.4538 9.6885,72.6971 -0.3614,9.6758 -0.2382,13.9127 0.3473,11.9368 l 0.9077,-3.0632 43.2698,8.9431 c 23.7984,4.9187 84.8948,17.61 135.7698,28.203 50.875,10.5929 93.484,19.3094 94.6866,19.3701 1.9097,0.096 5.4737,-6.3788 28.1483,-51.1398 z m -310.1518,32.0625 c -0.3192,-0.7977 -0.5562,-0.5608 -0.6042,0.6042 -0.043,1.0541 0.193,1.6448 0.5253,1.3125 0.3323,-0.3323 0.3678,-1.1948 0.079,-1.9167 z m 2179,0 c -0.3192,-0.7977 -0.5562,-0.5608 -0.6042,0.6042 -0.043,1.0541 0.193,1.6448 0.5253,1.3125 0.3323,-0.3323 0.3678,-1.1948 0.079,-1.9167 z m -2173.0208,-30.0625 c -0.2774,-0.6875 -0.5044,-0.125 -0.5044,1.25 0,1.375 0.227,1.9375 0.5044,1.25 0.2774,-0.6875 0.2774,-1.8125 0,-2.5 z m -417.6935,-43.75 c 2.2689,-26.1421 8.531,-48.8396 20.0892,-72.8153 11.7016,-24.2732 24.1207,-41.4144 43.6605,-60.2618 31.543,-30.4252 69.7024,-49.3966 113.7815,-56.568 15.3545,-2.498 46.8447,-2.5132 62,-0.03 36.2423,5.9386 68.0044,19.3337 97,40.9081 2.9669,2.2076 2.6272,1.7224 -1.3154,-1.8784 l -5.3153,-4.8547 172.8153,-194.3662 c 95.0485,-106.9014 172.8154,-194.927 172.8154,-195.6125 0,-0.6855 -45.7002,-49.3457 -101.556,-108.1338 -55.8558,-58.7881 -132.2869,-139.2278 -169.8469,-178.7548 l -68.2909,-71.8672 4.8469,-5.0647 4.8469,-5.0647 -5.1448,4.187 c -9.2233,7.5062 -26.6109,18.5676 -38.3552,24.4002 -12.3824,6.1496 -36.8034,14.7016 -49.0872,17.1899 -47.4397,9.6099 -97.4789,3.1019 -138.4639,-18.0084 -20.2637,-10.4373 -34.9008,-20.9609 -51.3006,-36.8834 -25.1445,-24.4127 -42.0604,-51.0659 -52.791,-83.1788 -6.4086,-19.1786 -10.9403,-43.5137 -11.4234,-61.3426 -0.053,-1.946 -0.3469,-1.609 -1.3277,1.521 -0.693,2.2115 -2.1103,5.3188 -3.1497,6.905 -1.9954,3.0454 -102.8022,79.2226 -109.3603,82.6409 -9.3547,4.8759 -21.0137,2.9926 -28.69,-4.6344 -8.5352,-8.4803 -9.6443,-21.4634 -2.7045,-31.6577 1.4844,-2.1805 11.195,-10.2103 23.4171,-19.3638 11.4847,-8.6012 20.8812,-15.8123 20.8812,-16.0248 0,-0.2124 -115.425,-0.3862 -256.5,-0.3862 h -256.5 v 521 521 h 256.5 c 141.075,0 256.5,-0.1738 256.5,-0.3862 0,-0.2125 -9.3452,-7.3852 -20.7671,-15.9394 -11.4219,-8.5542 -21.7448,-16.8755 -22.9398,-18.4918 -3.2489,-4.3944 -5.6201,-12.589 -5.0658,-17.5068 1.95,-17.3001 20.7878,-27.6034 35.9852,-19.682 7.2486,3.7781 107.236,79.7306 109.5197,83.1933 1.2277,1.8615 2.5425,4.9365 2.9218,6.8331 0.8935,4.4671 1.0249,3.8412 2.3148,-11.0202 z m 390.5312,-90 c -0.9061,-1.7522 -1.4959,-3.3374 -1.3107,-3.5227 0.5066,-0.5065 410.046,-192.0963 480.5732,-224.8206 8.3944,-3.8949 15.1444,-7.3749 15,-7.7334 -0.7261,-1.8025 -173.3605,-182.6717 -173.986,-182.2852 -0.4015,0.2482 -77.727,87.0561 -171.8344,192.9066 -94.1074,105.8504 -171.428,192.4553 -171.8236,192.4553 -0.3956,0 -3.3966,-2.3489 -6.6689,-5.2198 -5.6786,-4.982 -5.5973,-4.8466 1.7845,2.9725 8.6488,9.161 20.8034,25.0737 25.7324,33.6887 3.3716,5.893 5.4296,7.159 2.5335,1.5586 z m 2235.6141,-19.1499 c 3.3382,-4.3852 8.8406,-10.967 12.2277,-14.6262 l 6.1582,-6.653 -5.2917,4.4062 -5.2916,4.4062 -3.3274,-3.4416 c -1.83,-1.8929 -74.3584,-82.4167 -161.1741,-178.9417 -86.8157,-96.525 -163.2132,-181.4284 -169.7723,-188.6742 l -11.9256,-13.1741 -10.1585,10.6741 c -5.5872,5.8708 -19.8111,20.8017 -31.6087,33.1798 -55.4863,58.2167 -128.4745,135.2624 -128.6913,135.8457 -0.1327,0.3568 32.2673,15.8294 72,34.3836 39.7327,18.5541 84.1662,39.3204 98.7412,46.1472 14.575,6.8268 71.275,33.342 126,58.9228 150.4354,70.3198 198.4675,92.832 198.8237,93.1868 0.1781,0.1773 -0.3844,1.6919 -1.25,3.3657 -3.1049,6.0043 -1.4828,4.5012 3.4487,-3.1957 2.7622,-4.3111 7.7535,-11.4263 11.0917,-15.8116 z m -1460.8497,-77.3208 34.6074,-45.4708 -39.0947,-74.2792 c -21.502,-40.8536 -39.1642,-74.3829 -39.2493,-74.5094 -0.1256,-0.1868 -96.6974,44.791 -140.9001,65.6233 l -10.8722,5.124 4.3722,4.9718 c 7.2024,8.19 155.3244,163.9311 155.9508,163.9727 0.3182,0.021 16.1519,-20.4235 35.1859,-45.4324 z m 90.3811,-118.5293 c 11.5275,-15.125 38.1784,-50.1125 59.2241,-77.75 21.0457,-27.6375 38.7324,-50.25 39.3037,-50.25 0.5714,0 2.9036,1.4346 5.1828,3.1881 2.2791,1.7534 -0.6825,-1.7341 -6.5814,-7.75 -12.4901,-12.738 -21.9608,-24.5816 -30.0247,-37.5477 -5.8866,-9.4652 -7.3615,-10.9695 -3.6802,-3.7537 1.1383,2.2314 1.9079,4.2189 1.7101,4.4167 -0.1978,0.1978 -14.7417,7.0748 -32.3197,15.2823 -17.5781,8.2075 -37.1352,17.3787 -43.4602,20.3805 -6.325,3.0018 -26.35,12.3641 -44.5,20.8052 -18.15,8.441 -33.1753,15.4772 -33.3896,15.6359 -0.2142,0.1587 12.3474,24.4882 27.9147,54.0656 38.9238,73.9538 38.1442,72.5207 38.9458,71.5994 0.3934,-0.4523 10.147,-13.1973 21.6746,-28.3223 z m 905.547,-140.1539 c 50.7691,-53.4346 92.3075,-97.4948 92.3075,-97.9115 0,-1.3078 -200.7106,-223.9349 -201.8846,-223.9292 -0.6135,0 -8.0904,2.6511 -16.6154,5.8849 -8.525,3.2338 -76.25,28.8415 -150.5,56.9059 -74.25,28.0645 -144.629,54.6748 -156.3977,59.134 -11.7687,4.4593 -21.5126,7.9867 -21.6531,7.8388 -0.1404,-0.148 -0.9805,-1.844 -1.8669,-3.769 -0.8864,-1.925 -1.3698,-2.6489 -1.0742,-1.6088 0.2957,1.0402 1.6366,7.3402 2.9799,14 7.4145,36.7597 5.4416,72.2133 -5.9781,107.4303 -3.5415,10.9215 -4.1419,14.7405 -1.041,6.6208 1.4803,-3.8761 2.0947,-4.5162 3.8944,-4.0565 1.1752,0.3002 14.7367,6.4573 30.1367,13.6824 15.4,7.2252 82.9,38.8085 150,70.1851 67.1,31.3766 136.175,63.7096 153.5,71.8511 17.325,8.1414 31.5866,14.8235 31.6925,14.8491 0.1059,0.026 41.7309,-43.6728 92.5,-97.1074 z m -1217.4777,48.9039 c 10.5615,-21.0375 33.5749,-66.6 51.1408,-101.25 l 31.9382,-63 -46.9639,-89 c -25.8301,-48.95 -48.4232,-91.8544 -50.2068,-95.343 l -3.2431,-6.343 -90.44,101.6562 c -49.742,55.9109 -90.577,102.0387 -90.7444,102.5062 -0.1674,0.4674 21.8826,24.2129 49,52.7676 27.1174,28.5547 67.3044,70.8843 89.3044,94.0658 22,23.1815 40.2277,42.1577 40.506,42.1692 0.2784,0.012 9.1473,-17.1915 19.7088,-38.229 z m 109.2852,-7.7269 c 23.925,-11.1643 43.8148,-20.5742 44.1995,-20.9109 0.3848,-0.3367 -8.0907,-17.2622 -18.8343,-37.6122 -10.7437,-20.35 -20.3311,-38.5363 -21.3054,-40.4139 l -1.7714,-3.4139 -32.5812,64.4139 c -17.9196,35.4276 -32.883,65.2022 -33.2519,66.1657 -0.5108,1.3342 1.7985,0.5978 9.687,-3.0891 5.6967,-2.6624 29.9327,-13.9753 53.8577,-25.1396 z m 163.637,-76.6483 c 39.5247,-18.4938 74.113,-34.6894 76.863,-35.9902 2.75,-1.3008 5.5253,-2.3695 6.1673,-2.3748 0.642,-0.01 1.9445,2.0252 2.8944,4.5125 3.0744,8.0504 2.4544,4.1729 -1.0716,-6.7008 -11.4197,-35.217 -13.3926,-70.6706 -5.9781,-107.4303 1.3433,-6.6598 2.6842,-12.9598 2.9799,-14 0.2956,-1.0401 -0.1878,-0.3162 -1.0742,1.6088 -0.8864,1.925 -1.7265,3.621 -1.8669,3.769 -0.1405,0.1479 -9.8844,-3.3834 -21.6531,-7.8474 -78.2838,-29.6936 -124.2465,-46.9061 -124.5209,-46.6317 -0.1751,0.1751 -15.1987,29.6712 -33.3858,65.5468 l -33.0674,65.2284 25.6561,48.7175 c 32.3371,61.4038 34.4064,65.2174 35.3883,65.2174 0.4433,0 33.1444,-15.1313 72.669,-33.6252 z m 1180.9289,-213.3748 c 59.3055,-62.425 135.9473,-143.1029 170.315,-179.2843 l 62.4867,-65.7843 5.5052,5.2843 5.5051,5.2843 -5.0308,-5.6576 c -10.142,-11.4055 -20.1927,-25.8972 -30.1631,-43.4909 -1.8238,-3.2183 -3.0103,-4.9515 -2.6366,-3.8515 0.3737,1.1 0.8802,2.6891 1.1255,3.5313 0.349,1.1983 -8.6467,4.9759 -41.3635,17.37 -65.7962,24.9256 -330.3845,124.9099 -398.5905,150.6219 -33.9796,12.8095 -61.6546,23.6253 -61.5,24.0351 0.6701,1.7761 185.0628,206.0101 185.753,205.7407 0.4211,-0.1645 49.2884,-51.374 108.594,-113.799 z m -1596.5443,8.5687 c 50.1231,-56.3372 91.1244,-102.7568 91.1141,-103.1548 -0.01,-0.3979 -13.6576,-5.8655 -30.3273,-12.1501 -219.5881,-82.7866 -464.1639,-175.3271 -464.6836,-175.8229 -0.2063,-0.1968 0.4055,-2.2891 1.3597,-4.6494 3.1673,-7.8346 2.7545,-7.3795 -2.4567,2.7085 -6.799,13.1617 -18.0218,29.841 -27.587,41 -6.5953,7.6942 -6.9228,8.2327 -2.2573,3.7115 l 5.4573,-5.2884 55.9296,58.877 c 30.7613,32.3824 106.7796,112.4751 168.9296,177.9839 62.15,65.5089 113.0875,119.1315 113.1944,119.1615 0.1069,0.03 41.2042,-46.0396 91.3272,-102.3768 z m 300.3159,-24.5352 c -0.4606,-0.4078 -11.4125,-4.7055 -24.3375,-9.5505 -12.925,-4.845 -39.897,-15.0262 -59.9377,-22.625 -20.0408,-7.5987 -36.5033,-13.7129 -36.5835,-13.5869 -0.08,0.1259 16.5208,31.8118 36.8911,70.4131 l 37.0369,70.1841 23.8841,-47.0467 c 13.1362,-25.8757 23.5072,-47.3803 23.0466,-47.7881 z m 223.062,10.4665 c 7.3248,-11.3245 15.0778,-21.0149 25.582,-31.9748 8.0633,-8.413 9.1609,-9.8407 4.7023,-6.1161 -3.2516,2.7162 -6.179,4.4689 -6.639,3.9747 -0.4526,-0.4861 -23.4201,-28.5588 -51.0389,-62.3838 -27.6187,-33.825 -52.116,-63.7364 -54.4384,-66.4699 l -4.2225,-4.9698 -16.5364,32.4698 c -9.095,17.8585 -24.0218,47.2188 -33.1707,65.2453 l -16.6344,32.7754 2.7482,1.0455 c 1.5116,0.5751 17.1483,6.4587 34.7483,13.0748 47.6209,17.9013 102.9483,38.9826 103.3752,39.3889 0.2063,0.1964 -0.3562,2.1848 -1.25,4.4187 -2.893,7.2304 -1.6721,5.7395 3.6677,-4.4787 2.8741,-5.5 6.9721,-12.7 9.1066,-16 z m 366.0172,20.5833 c -0.9169,-2.2914 -1.4982,-4.3278 -1.2919,-4.5253 0.5517,-0.5279 36.0415,-13.9834 187.7583,-71.1862 75.0107,-28.2817 137.0195,-51.7775 137.7973,-52.2128 1.0453,-0.585 -32.1622,-38.0893 -127.2586,-143.7253 -70.7702,-78.6135 -161.0393,-178.8893 -200.5981,-222.835 l -71.9251,-79.9013 4.8007,-4.4283 4.8007,-4.4284 -4.5,3.4649 c -19.918,15.3367 -47.8738,28.9523 -73.0156,35.5615 -19.9592,5.2468 -31.1769,6.5977 -54.4844,6.5616 -17.17,-0.027 -23.2798,-0.4374 -33.5,-2.2527 -12.651,-2.2471 -30.986,-7.1862 -40.9404,-11.0285 -6.4457,-2.4881 -7.8114,-2.2412 -2.0283,0.3666 2.9194,1.3165 3.8874,2.2685 3.4636,3.4065 -0.3234,0.8687 -33.1446,65.9294 -72.9359,144.5794 -39.7913,78.65 -74.8481,148.0106 -77.9039,154.1346 l -5.5561,11.1347 62.0705,75.7847 62.0705,75.7848 -4.87,4.3584 -4.87,4.3584 6.5,-4.3977 c 28.0359,-18.9683 62.4614,-31.1928 97.4237,-34.5949 48.1908,-4.6894 98.4589,8.3173 138.0763,35.7269 29.1214,20.1478 54.4857,49.2998 69.1118,79.4322 3.1738,6.5385 4.2895,7.071 1.8049,0.8612 z m -526.1667,-152.98 c 21.3125,-42.2716 38.75,-77.3816 38.75,-78.022 0,-1.2535 -63.9108,-79.7296 -64.6293,-79.3583 -0.9601,0.4961 -158.5658,178.1739 -158.7124,178.9254 -0.144,0.7382 142.5134,55.1762 144.8417,55.2715 0.55,0.023 18.4375,-34.5449 39.75,-76.8166 z m 1137.0192,-82.9965 c 125.273,-47.3587 240.8681,-91.0742 256.8779,-97.1455 16.0098,-6.0714 29.2325,-10.9089 29.3839,-10.7501 0.1513,0.1589 0.9985,1.8638 1.8826,3.7888 1.0942,2.3826 1.4329,2.7019 1.0607,1 -6.463,-29.5551 -8.0228,-43.6914 -7.1169,-64.5 0.3353,-7.7 1.273,-18.0314 2.084,-22.9587 1.6441,-9.9896 1.4263,-12.3265 -0.4285,-4.5953 -0.6668,2.7797 -1.4152,5.054 -1.6632,5.054 -0.4545,0 -209.911,-56.6477 -445.3497,-120.4453 -215.0763,-58.2799 -385.039,-104.3221 -416,-112.6926 -16.225,-4.3865 -30.2571,-8.1956 -31.1825,-8.4647 -1.548,-0.4502 -1.5626,-0.8929 -0.1819,-5.542 0.8252,-2.779 1.2989,-5.2542 1.0525,-5.5006 -0.2463,-0.2464 -0.7594,0.8105 -1.1401,2.3486 -1.1658,4.7099 -9.5474,23.3405 -14.3049,31.7966 -7.8681,13.9854 -18.2127,28.147 -29.1638,39.9251 l -4.5793,4.9251 4.43,-3.6751 c 2.4365,-2.0213 4.7098,-3.6751 5.0517,-3.6751 0.5101,0 122.8412,135.6477 381.5183,423.049 l 33,36.6644 3.5,-1.2499 c 1.925,-0.6874 105.9961,-39.9979 231.2692,-87.3567 z m -1279.1861,-19.0753 c 46.1543,-51.9272 83.9169,-94.6882 83.9169,-95.0244 0,-1.4906 -176.2579,-216.0071 -177.4826,-216.0071 -1.9258,0 -178.4091,48.5584 -179.1401,49.2894 -0.8252,0.8252 186.8546,356.8 187.9265,356.4427 0.4744,-0.1582 38.6251,-42.7734 84.7793,-94.7006 z m -156.7652,67.1385 C 2496.5257,2551.733 2410.625,2389.672 2409.6748,2389.644 c -0.6708,-0.02 -44.7708,11.923 -98,26.5395 -141.4931,38.8532 -180.2753,49.4246 -181.3192,49.4246 -0.5129,0 -1.4467,-2.0422 -2.0753,-4.5383 -1.7887,-7.1038 -1.9434,-4.7418 -0.3325,5.0796 4.3454,26.4946 2.9338,51.0506 -5.0278,87.4587 -0.3722,1.7019 -0.034,1.3826 1.0607,-1 0.8841,-1.925 1.7294,-3.628 1.8784,-3.7845 0.1489,-0.1564 24.0678,8.7283 53.153,19.744 267.9781,101.493 404.0939,152.872 405.2001,152.9489 0.7608,0.053 -2.4095,-7.0227 -7.5,-16.7384 z m 439.126,-242.17 c 30.1426,-59.675 58.5988,-115.8111 63.2362,-124.7468 l 8.4316,-16.2468 2.9441,1.5225 c 4.6831,2.4217 3.4318,1.0744 -2.8058,-3.021 -3.1625,-2.0764 -7.775,-5.3338 -10.25,-7.2385 -4.0776,-3.1382 -4.0015,-3.0083 0.8096,1.3837 l 5.3097,4.8469 -98.1755,110.5 c -53.9965,60.775 -98.9896,111.4 -99.9848,112.5 -1.7741,1.961 -1.2619,2.6689 26.2638,36.2899 l 28.0732,34.2899 10.6717,-20.7899 c 5.8694,-11.4344 35.3337,-69.6149 65.4762,-129.2899 z m 1297.6782,122.325 c -1.1789,-2.0272 -1.4635,-1.3784 -0.4986,1.1363 0.343,0.8937 0.8342,1.4143 1.0917,1.1568 0.2575,-0.2574 -0.01,-1.2893 -0.5931,-2.2931 z m -1367.1373,-186.825 c 51.8058,-58.3 95.4751,-107.3141 97.0431,-108.9201 l 2.8508,-2.9202 4.8107,3.8669 4.8106,3.8669 -5.5408,-5.9467 c -17.7279,-19.0267 -33.4044,-44.1232 -41.9911,-67.2236 -3.097,-8.3317 -3.8676,-8.7596 -1.4555,-0.8083 0.82,2.7032 1.3777,5.0242 1.2392,5.1579 -0.1385,0.1337 -7.2268,2.1328 -15.7518,4.4424 -25.4812,6.9033 -288.0724,78.9559 -293.683,80.5839 l -5.183,1.5039 76.6139,93.6985 c 42.1376,51.5342 77.545,94.9092 78.683,96.3889 1.138,1.4798 2.3599,2.6048 2.7154,2.5 0.3555,-0.1047 43.0328,-47.8904 94.8385,-106.1904 z m -1231.4998,57 c 11.5493,-56.9578 47.3211,-107.3381 97.7014,-137.6009 61.1652,-36.7411 137.8492,-39.5239 201.9538,-7.3287 26.3885,13.2531 51.9532,33.8373 69.7638,56.1724 12.3336,15.4668 26.3031,39.8309 32.1263,56.0311 2.6346,7.3297 3.555,7.8213 1.4312,0.7646 -0.8058,-2.6776 -1.3518,-4.9795 -1.2133,-5.1156 0.265,-0.2603 21.5961,-6.1142 174.7518,-47.957 51.975,-14.1998 94.6455,-25.9216 94.8233,-26.0485 0.1778,-0.1268 -6.404,-12.9851 -14.6263,-28.574 -29.5321,-55.9911 -192.6682,-365.6206 -279.1614,-529.8434 -48.5206,-92.125 -90.2091,-171.1806 -92.6412,-175.6792 l -4.4219,-8.1792 -10.1304,3.4116 c -36.2972,12.2237 -79.388,13.5185 -117.9847,3.5454 -50.4476,-13.0353 -95.4138,-45.9682 -124.3851,-91.0986 -6.8485,-10.6683 -17.7032,-33.6471 -21.843,-46.2403 -5.5748,-16.9585 -10.2423,-43.0382 -10.6954,-59.7597 -0.053,-1.946 -0.3469,-1.609 -1.3277,1.521 -0.693,2.2115 -2.1103,5.3188 -3.1497,6.905 -1.9954,3.0454 -102.8022,79.2226 -109.3603,82.6409 -9.3547,4.8759 -21.0137,2.9926 -28.69,-4.6344 -8.5352,-8.4803 -9.6443,-21.4634 -2.7045,-31.6577 1.4844,-2.1805 11.195,-10.2102 23.4171,-19.3638 11.4847,-8.6012 20.8812,-15.8123 20.8812,-16.0247 0,-0.2125 -115.425,-0.3863 -256.5,-0.3863 h -256.5 v 521 521 h 256.5 c 141.075,0 256.5,-0.1738 256.5,-0.3862 0,-0.2125 -9.3452,-7.3852 -20.7671,-15.9394 -11.4219,-8.5542 -21.7448,-16.8755 -22.9398,-18.4918 -3.2489,-4.3944 -5.6201,-12.589 -5.0658,-17.5068 1.95,-17.3001 20.7878,-27.6034 35.9852,-19.682 7.2486,3.7781 107.236,79.7306 109.5197,83.1933 1.2277,1.8615 2.5645,4.9435 2.9708,6.8488 0.5744,2.6939 1.0288,0.4626 2.0437,-10.0359 0.7178,-7.425 2.4,-18.9 3.7383,-25.5 z m 806.0479,-148.0009 c 45.6319,-12.5017 83.3284,-23.0621 83.7699,-23.4675 0.4415,-0.4055 -34.1173,-43.4409 -76.7973,-95.6344 -42.6801,-52.1935 -86.0599,-105.2472 -96.3997,-117.8972 -208.9996,-255.6979 -370.5492,-453.2128 -371.3318,-454 -1.4503,-1.459 -5.2798,-8.773 103.9312,198.5 55.4952,105.325 139.3516,264.5081 186.3476,353.7403 46.9959,89.2321 85.912,162.0712 86.4801,161.8647 0.568,-0.2066 38.368,-10.6042 84,-23.1059 z m 162.4222,-44.5907 c 12.3997,-3.3503 87.2288,-23.8253 166.2869,-45.5 79.0581,-21.6746 144.1892,-39.4084 144.7356,-39.4084 0.5465,0 1.5078,2.0422 2.1364,4.5383 1.8502,7.348 1.9231,4.6067 0.1483,-5.5772 -2.6155,-15.0077 -2.2983,-48.735 0.6138,-65.2739 2.6276,-14.9232 7.3959,-31.7431 12.5609,-44.3077 4.9924,-12.1449 5.0424,-12.3135 2.5581,-8.6295 -1.2053,1.7875 -2.5294,3.25 -2.9425,3.25 -0.413,0 -11.9563,-6.4609 -25.6518,-14.3575 -13.6954,-7.8966 -82.7258,-47.6768 -153.4008,-88.4004 -70.675,-40.7237 -147.4,-84.941 -170.5,-98.2608 -60.2005,-34.7125 -186.6668,-107.5712 -331.5,-190.981 -69.025,-39.7516 -130.675,-75.3054 -137,-79.0083 -6.325,-3.703 -31.3,-18.1022 -55.5,-31.9982 -24.2,-13.896 -44.3977,-25.6245 -44.8838,-26.0634 -0.4951,-0.447 0.3331,-2.9163 1.8829,-5.6142 3.4783,-6.0547 2.4306,-4.9832 -5.5571,5.6838 -3.5008,4.675 -10.8824,13.2145 -16.4036,18.9767 -7.9619,8.3095 -8.8353,9.4712 -4.2222,5.6161 3.2259,-2.6958 6.1768,-4.4669 6.6261,-3.9766 0.7139,0.779 96.2778,117.6506 472.9346,578.3838 117.3792,143.5803 111.9335,137 113.378,137 0.6354,0 11.3005,-2.7412 23.7002,-6.0916 z m 727.728,-78.0959 c -0.3192,-0.7977 -0.5562,-0.5608 -0.6042,0.6042 -0.043,1.0541 0.193,1.6448 0.5253,1.3125 0.3323,-0.3323 0.3678,-1.1948 0.079,-1.9167 z M 2042.5219,1576.8581 c 1.2438,-1.5861 1.2085,-1.6214 -0.3776,-0.3776 -1.6657,1.3064 -2.1955,2.1276 -1.3724,2.1276 0.2076,0 0.9951,-0.7875 1.75,-1.75 z"
       style="" />
  </g>
  <text
     id="text6"
     font-family="'Helvetica Neue', Helvetica, Arial-Unicode, Arial, Sans-serif"
     font-weight="bold"
     font-size="5px"
     fill="#000000"
     y="3711"
     x="0">Created by Lucas Rathgeb</text>
  <text
     id="text8"
     font-family="'Helvetica Neue', Helvetica, Arial-Unicode, Arial, Sans-serif"
     font-weight="bold"
     font-size="5px"
     fill="#000000"
     y="3716"
     x="0">from the Noun Project</text>
</svg>
