<svg xmlns="http://www.w3.org/2000/svg" xmlns:xlink="http://www.w3.org/1999/xlink" version="1.1" x="0px" y="0px" viewBox="0 0 32 40" style="enable-background:new 0 0 32 32;" xml:space="preserve"><g><path d="M3,30c-0.2559,0-0.5117-0.0977-0.707-0.293c-0.3906-0.3906-0.3906-1.0234,0-1.4141l26-26   c0.3906-0.3906,1.0234-0.3906,1.4141,0s0.3906,1.0234,0,1.4141l-26,26C3.5117,29.9023,3.2559,30,3,30z"/><path d="M19,25c-1.103,0-2-0.897-2-2s0.897-2,2-2s2,0.897,2,2S20.103,25,19,25z M19,23c-0.001,0-0.0024,0.0005-0.0029,0.001L19,24   V23z"/><path d="M23,30c-1.103,0-2-0.897-2-2s0.897-2,2-2s2,0.897,2,2S24.103,30,23,30z M23,28c-0.001,0-0.0024,0.0005-0.0029,0.001L23,29   V28z"/><path d="M13,29c-1.103,0-2-0.897-2-2s0.897-2,2-2s2,0.897,2,2S14.103,29,13,29z M13,27c-0.001,0-0.0024,0.0005-0.0029,0.001L13,28   V27z"/><path d="M20,20c-1.103,0-2-0.897-2-2s0.897-2,2-2s2,0.897,2,2S21.103,20,20,20z M20,18c-0.001,0-0.0024,0.0005-0.0029,0.001L20,19   V18z"/><path d="M25,21c-1.103,0-2-0.897-2-2s0.897-2,2-2s2,0.897,2,2S26.103,21,25,21z M25,19c-0.001,0-0.0024,0.0005-0.0029,0.001L25,20   V19z"/><path d="M26,15c-1.103,0-2-0.897-2-2s0.897-2,2-2s2,0.897,2,2S27.103,15,26,15z M26,13c-0.001,0-0.0024,0.0005-0.0029,0.001L26,14   V13z"/><path d="M16,8c-0.5522,0-1-0.4478-1-1V5c0-0.5522,0.4478-1,1-1s1,0.4478,1,1v2C17,7.5522,16.5522,8,16,8z"/><path d="M17,7h-2c-0.5522,0-1-0.4478-1-1s0.4478-1,1-1h2c0.5522,0,1,0.4478,1,1S17.5522,7,17,7z"/><path d="M14,13c-0.5522,0-1-0.4478-1-1v-2c0-0.5522,0.4478-1,1-1s1,0.4478,1,1v2C15,12.5522,14.5522,13,14,13z"/><path d="M15,12h-2c-0.5522,0-1-0.4478-1-1s0.4478-1,1-1h2c0.5522,0,1,0.4478,1,1S15.5522,12,15,12z"/><path d="M11,17c-0.5522,0-1-0.4478-1-1v-2c0-0.5522,0.4478-1,1-1s1,0.4478,1,1v2C12,16.5522,11.5522,17,11,17z"/><path d="M12,16h-2c-0.5522,0-1-0.4478-1-1s0.4478-1,1-1h2c0.5522,0,1,0.4478,1,1S12.5522,16,12,16z"/><path d="M4,17c-0.5522,0-1-0.4478-1-1v-2c0-0.5522,0.4478-1,1-1s1,0.4478,1,1v2C5,16.5522,4.5522,17,4,17z"/><path d="M5,16H3c-0.5522,0-1-0.4478-1-1s0.4478-1,1-1h2c0.5522,0,1,0.4478,1,1S5.5522,16,5,16z"/><path d="M7,21c-0.5522,0-1-0.4478-1-1v-2c0-0.5522,0.4478-1,1-1s1,0.4478,1,1v2C8,20.5522,7.5522,21,7,21z"/><path d="M8,20H6c-0.5522,0-1-0.4478-1-1s0.4478-1,1-1h2c0.5522,0,1,0.4478,1,1S8.5522,20,8,20z"/><path d="M8,12c-0.5522,0-1-0.4478-1-1V9c0-0.5522,0.4478-1,1-1s1,0.4478,1,1v2C9,11.5522,8.5522,12,8,12z"/><path d="M9,11H7c-0.5522,0-1-0.4478-1-1s0.4478-1,1-1h2c0.5522,0,1,0.4478,1,1S9.5522,11,9,11z"/><path d="M6,6C5.4478,6,5,5.5522,5,5V3c0-0.5522,0.4478-1,1-1s1,0.4478,1,1v2C7,5.5522,6.5522,6,6,6z"/><path d="M7,5H5C4.4478,5,4,4.5522,4,4s0.4478-1,1-1h2c0.5522,0,1,0.4478,1,1S7.5522,5,7,5z"/></g><text x="0" y="47" fill="#000000" font-size="5px" font-weight="bold" font-family="'Helvetica Neue', Helvetica, Arial-Unicode, Arial, Sans-serif">Created by M. Oki Orlando</text><text x="0" y="52" fill="#000000" font-size="5px" font-weight="bold" font-family="'Helvetica Neue', Helvetica, Arial-Unicode, Arial, Sans-serif">from the Noun Project</text></svg>