<svg xmlns="http://www.w3.org/2000/svg" version="1.1" viewBox="-5.0 -10.0 110.0 135.0">
 <path d="m24.699 18.395h57.32c4.6641 0 8.9023 1.9062 11.973 4.9766 3.0703 3.0703 4.9766 7.3125 4.9766 11.973s-1.9062 8.9023-4.9766 11.973c-3.0703 3.0703-7.3086 4.9766-11.973 4.9766h-11.336l4.5781 5.082c0.84766 0.94141 0.76953 2.3906-0.17188 3.2383-0.94141 0.84766-2.3906 0.76953-3.2383-0.17188l-8.0117-8.9023c-0.78906-0.85937-0.80859-2.1914-0.011719-3.0781l8.0234-8.9141c0.84766-0.94141 2.2969-1.0156 3.2383-0.17188 0.94141 0.84766 1.0156 2.2969 0.17188 3.2383l-4.5781 5.082h11.336c3.3945 0 6.4844-1.3906 8.7266-3.6328 2.2422-2.2422 3.6328-5.3281 3.6328-8.7266 0-3.3945-1.3906-6.4844-3.6328-8.7266-2.2422-2.2422-5.332-3.6328-8.7266-3.6328h-57.32c-0.45703 2.2422-1.5664 4.2461-3.125 5.8047-2.0742 2.0742-4.9375 3.3555-8.1016 3.3555-3.1602 0-6.0273-1.2812-8.1016-3.3555-2.0742-2.0742-3.3555-4.9375-3.3555-8.1016 0-3.1602 1.2852-6.0273 3.3555-8.1016 2.0742-2.0742 4.9375-3.3555 8.1016-3.3555 3.1602 0 6.0273 1.2852 8.1016 3.3555 1.5586 1.5586 2.6719 3.5625 3.125 5.8008zm61.82 54.047c-1.8945 0-3.6133 0.76953-4.8555 2.0117-1.2422 1.2422-2.0117 2.957-2.0117 4.8555 0 1.8945 0.76953 3.6133 2.0117 4.8555 1.2422 1.2422 2.957 2.0117 4.8555 2.0117 1.8945 0 3.6133-0.76953 4.8555-2.0117 1.2422-1.2422 2.0117-2.957 2.0117-4.8555 0-1.8945-0.76953-3.6133-2.0117-4.8555s-2.957-2.0117-4.8555-2.0117zm-8.1016-1.2344c2.0742-2.0742 4.9375-3.3555 8.1016-3.3555 3.1602 0 6.0273 1.2812 8.1016 3.3555 2.0742 2.0742 3.3555 4.9375 3.3555 8.1016 0 3.1602-1.2852 6.0273-3.3555 8.1016-2.0742 2.0742-4.9336 3.3555-8.1016 3.3555-3.1602 0-6.0273-1.2852-8.1016-3.3555-1.5586-1.5586-2.668-3.5625-3.125-5.8008h-57.32c-4.6641 0-8.9023-1.9062-11.973-4.9766-3.0703-3.0703-4.9766-7.3125-4.9766-11.973s1.9062-8.9023 4.9766-11.973 7.3125-4.9766 11.973-4.9766h23.18l-4.5781-5.082c-0.84766-0.94141-0.76953-2.3906 0.17188-3.2383s2.3906-0.76953 3.2383 0.17188l8.0117 8.9023c0.78906 0.85938 0.80859 2.1914 0.011718 3.0781l-8.0234 8.9141c-0.84766 0.94141-2.2969 1.0156-3.2383 0.17188-0.94141-0.84766-1.0156-2.2969-0.17188-3.2383l4.5781-5.082h-23.18c-3.3945 0-6.4844 1.3906-8.7266 3.6328-2.2422 2.2422-3.6328 5.332-3.6328 8.7266s1.3906 6.4844 3.6328 8.7266c2.2422 2.2422 5.332 3.6328 8.7266 3.6328h57.32c0.45703-2.2422 1.5664-4.2461 3.125-5.8047zm-64.945-43.652c1.8945 0 3.6133-0.76953 4.8555-2.0117 1.2422-1.2422 2.0117-2.957 2.0117-4.8555 0-1.8945-0.76953-3.6133-2.0117-4.8555-1.2422-1.2422-2.957-2.0117-4.8555-2.0117-1.8945 0-3.6133 0.76953-4.8555 2.0117-1.2422 1.2422-2.0117 2.957-2.0117 4.8555 0 1.8945 0.76953 3.6133 2.0117 4.8555 1.2422 1.2422 2.957 2.0117 4.8555 2.0117z"/>
<text x="0.0" y="117.5" font-size="5.0" font-weight="bold" font-family="Arbeit Regular, Helvetica, Arial-Unicode, Arial, Sans-serif" fill="#000000">Created by YANDI RS</text><text x="0.0" y="122.5" font-size="5.0" font-weight="bold" font-family="Arbeit Regular, Helvetica, Arial-Unicode, Arial, Sans-serif" fill="#000000">from Noun Project</text></svg>